<svg width="37" height="35" viewBox="0 0 37 35" fill="none" xmlns="http://www.w3.org/2000/svg">
<path d="M3.90918 18.5C3.35689 18.5 2.90918 18.9477 2.90918 19.5C2.90918 20.0523 3.35689 20.5 3.90918 20.5V18.5ZM33.9092 20.5C34.4615 20.5 34.9092 20.0523 34.9092 19.5C34.9092 18.9477 34.4615 18.5 33.9092 18.5V20.5ZM3.90918 20.5H33.9092V18.5H3.90918V20.5Z" fill="black"/>
<path d="M7.92921 33.5H29.9092C29.9092 33.5 32.5703 28.7123 33.7417 19.5H35.9092C35.9092 19.5 35.9292 14.2063 35.9292 12.5H1.90918V19.5H4.09668C5.26805 28.7123 7.92921 33.5 7.92921 33.5Z" stroke="black" stroke-width="2" stroke-linecap="round" stroke-linejoin="round"/>
<path d="M23.9092 14.5L18.9092 1.5L13.9092 14.5" stroke="black" stroke-width="2" stroke-linecap="round" stroke-linejoin="round"/>
</svg>
