<?xml version="1.0" encoding="utf-8"?>
<!-- Generator: Adobe Illustrator 28.3.0, SVG Export Plug-In . SVG Version: 6.00 Build 0)  -->
<svg version="1.1" id="Calque_1" xmlns="http://www.w3.org/2000/svg" xmlns:xlink="http://www.w3.org/1999/xlink" x="0px" y="0px"
	 viewBox="0 0 7.2 14" style="enable-background:new 0 0 7.2 14;" xml:space="preserve">
<style type="text/css">
	.st0{fill:#41403D;}
</style>
<path class="st0" d="M1.7,0.3c-0.4-0.4-1-0.4-1.4,0s-0.4,1,0,1.4L1.7,0.3z M0.3,12.3c-0.4,0.4-0.4,1,0,1.4c0.4,0.4,1,0.4,1.4,0
	L0.3,12.3z M5.6,5.6L4.9,6.3L5.6,5.6z M0.3,1.7l4.6,4.6l1.4-1.4L1.7,0.3L0.3,1.7z M4.9,7.7l-4.6,4.6l1.4,1.4l4.6-4.6L4.9,7.7z
	 M4.9,6.3c0.4,0.4,0.4,1,0,1.4l1.4,1.4c1.2-1.2,1.2-3.1,0-4.2L4.9,6.3z"/>
</svg>
